# xmcd CD database file
#
# Track frame offsets:
#	150
#	14100
#	27777
#	39698
#	51563
#	66754
#	80738
#	90716
#	107301
#	125823
#	134878
#	158271
#	173146
#
# Disc length: 2599 seconds
#
# Revision: 0
# Processed by: cddbd v1.5.2PL0 Copyright (c) Steve Scherf et al.
# Submitted via: CDex 1.51
#
DISCID=b40a250d
DTITLE=RAFVEN - NEXT TIME WE TAKE YOUR INSTRUMENTS!
DYEAR=2009
DGENRE=Jazz
TTITLE0=Snart vander det
TTITLE1=Rafvens paradmarsch
TTITLE2=Skalmsjukan
TTITLE3=Bocka-Pars friluftsdag
TTITLE4=Snokvalsen
TTITLE5=Mustafa
TTITLE6=Franz Mardrom
TTITLE7=Hej pa mig sjalv
TTITLE8=Kraksangen
TTITLE9=Tjong! Sa Kurre
TTITLE10=Knivtango
TTITLE11=Snabeldansen
TTITLE12=Svartvattnet
EXTD=YEAR: 2009
EXTT0=
EXTT1=
EXTT2=
EXTT3=
EXTT4=
EXTT5=
EXTT6=
EXTT7=
EXTT8=
EXTT9=
EXTT10=
EXTT11=
EXTT12=
PLAYORDER=
